<svg width="534" height="373" viewBox="0 0 534 373" fill="none" xmlns="http://www.w3.org/2000/svg">
<path d="M84.0791 335.51L77.6391 327.39C74.4658 328.603 71.1524 329.536 67.6991 330.19C64.3391 330.936 60.7924 331.31 57.0591 331.31C49.6858 331.31 42.8258 330.05 36.4791 327.53C30.1324 324.916 24.5791 321.323 19.8191 316.75C15.0591 312.083 11.3258 306.716 8.6191 300.65C6.00577 294.49 4.6991 287.863 4.6991 280.77C4.6991 273.676 6.00577 267.096 8.6191 261.03C11.3258 254.87 15.0591 249.503 19.8191 244.93C24.5791 240.263 30.1324 236.67 36.4791 234.15C42.8258 231.536 49.6858 230.23 57.0591 230.23C64.4324 230.23 71.2924 231.536 77.6391 234.15C83.9858 236.67 89.5391 240.263 94.2991 244.93C99.0591 249.503 102.746 254.87 105.359 261.03C108.066 267.096 109.419 273.676 109.419 280.77C109.419 287.583 108.112 294.023 105.499 300.09C102.979 306.063 99.4791 311.336 94.9991 315.91L104.519 327.95L84.0791 335.51ZM57.0591 309.19C58.0858 309.19 59.0658 309.143 59.9991 309.05C61.0258 308.956 62.0058 308.816 62.9391 308.63L53.6991 296.87L74.1391 289.31L80.0191 296.87C81.5124 294.63 82.6324 292.156 83.3791 289.45C84.2191 286.65 84.6391 283.756 84.6391 280.77C84.6391 276.663 83.9391 272.883 82.5391 269.43C81.1391 265.976 79.1791 262.99 76.6591 260.47C74.2324 257.95 71.3391 255.99 67.9791 254.59C64.6191 253.096 60.9791 252.35 57.0591 252.35C53.1391 252.35 49.4991 253.096 46.1391 254.59C42.7791 255.99 39.8391 257.95 37.3191 260.47C34.8924 262.99 32.9791 265.976 31.5791 269.43C30.1791 272.883 29.4791 276.663 29.4791 280.77C29.4791 284.783 30.1791 288.563 31.5791 292.11C32.9791 295.563 34.8924 298.55 37.3191 301.07C39.8391 303.59 42.7791 305.596 46.1391 307.09C49.4991 308.49 53.1391 309.19 57.0591 309.19ZM107.517 329.77L147.697 231.77H175.277L214.897 329.77H188.857L179.897 306.11H141.677L132.577 329.77H107.517ZM148.957 286.93H172.757L160.997 255.57L148.957 286.93ZM222.027 329.77V231.77H273.687C280.127 231.77 285.821 233.17 290.767 235.97C295.807 238.676 299.774 242.41 302.667 247.17C305.561 251.93 307.007 257.39 307.007 263.55C307.007 269.43 305.561 274.75 302.667 279.51C299.774 284.176 295.807 287.863 290.767 290.57C285.727 293.276 280.034 294.63 273.687 294.63H246.107V329.77H222.027ZM246.107 274.75H270.887C274.434 274.75 277.281 273.723 279.427 271.67C281.574 269.616 282.647 266.956 282.647 263.69C282.647 260.33 281.574 257.623 279.427 255.57C277.281 253.423 274.434 252.35 270.887 252.35H246.107V274.75ZM319.371 329.77V231.77H343.451V329.77H319.371ZM386.163 329.77V253.05H354.103V231.77H442.303V253.05H410.243V329.77H386.163ZM425.662 329.77L465.842 231.77H493.422L533.042 329.77H507.002L498.042 306.11H459.822L450.722 329.77H425.662ZM467.102 286.93H490.902L479.142 255.57L467.102 286.93Z" fill="#FFCE5E"/>
<path d="M340.966 42.7671L270.132 1.84096C268.896 1.12504 267.493 0.748047 266.064 0.748047C264.636 0.748047 263.233 1.12504 261.996 1.84096L191.173 42.7671C189.937 43.4771 188.91 44.5008 188.196 45.7346C187.482 46.9685 187.106 48.3689 187.106 49.7945V131.702C187.106 133.129 187.482 134.53 188.196 135.766C188.91 137.002 189.937 138.027 191.173 138.74L261.996 179.655C263.233 180.371 264.636 180.748 266.064 180.748C267.493 180.748 268.896 180.371 270.132 179.655L286.894 169.975L237.058 141.24L208.33 124.663V58.3239L237.058 41.8022L265.782 25.2148L295.131 42.1642L323.23 58.3787V124.718L295.131 140.933L287.651 145.255L308.723 157.364L340.966 138.726C342.2 138.012 343.225 136.985 343.937 135.75C344.649 134.515 345.024 133.114 345.024 131.688V49.7958C345.024 48.3712 344.649 46.9718 343.937 45.7382C343.225 44.5045 342.2 43.48 340.966 42.7678V42.7671Z" fill="#633EA5"/>
<path d="M301.428 108.813V74.1804C301.426 73.1876 301.163 72.2127 300.667 71.3528C300.171 70.493 299.458 69.7783 298.599 69.2799L283.601 60.619L268.603 51.9685C267.745 51.4676 266.768 51.2036 265.775 51.2036C264.781 51.2036 263.804 51.4676 262.946 51.9685L247.948 60.6184L232.95 69.2792C232.09 69.7759 231.376 70.4902 230.88 71.3504C230.383 72.2107 230.122 73.1865 230.122 74.1797V108.813C230.122 109.806 230.383 110.782 230.88 111.643C231.377 112.503 232.091 113.217 232.952 113.714L247.948 122.375L262.979 131.014C263.839 131.51 264.815 131.771 265.807 131.771C266.8 131.771 267.776 131.51 268.636 131.014L283.601 122.375L298.599 113.714C299.457 113.216 300.17 112.501 300.667 111.641C301.163 110.781 301.426 109.806 301.428 108.813V108.813Z" fill="#633EA5"/>
</svg>
